<?xml version="1.0" standalone="no"?>
<!DOCTYPE svg PUBLIC "-//W3C//DTD SVG 20010904//EN"
 "http://www.w3.org/TR/2001/REC-SVG-20010904/DTD/svg10.dtd">
<svg version="1.0" xmlns="http://www.w3.org/2000/svg"
 width="500.000000pt" height="500.000000pt" viewBox="0 0 500.000000 500.000000"
 preserveAspectRatio="xMidYMid meet">
<metadata>
Created by potrace 1.14, written by Peter Selinger 2001-2017
</metadata>
<g transform="translate(0.000000,500.000000) scale(0.100000,-0.100000)"
fill="#000000" stroke="none">
<path d="M1075 4044 c-280 -29 -473 -98 -596 -211 -70 -66 -113 -130 -147
-225 l-27 -73 -3 -800 c-3 -871 -2 -886 53 -1012 69 -154 208 -264 415 -327
266 -80 701 -82 980 -5 188 51 343 163 413 297 57 108 69 177 71 402 l1 195
-242 3 -241 2 -4 -137 c-4 -156 -18 -202 -81 -266 -44 -43 -141 -91 -222 -108
-78 -16 -285 -16 -355 0 -133 32 -233 101 -274 190 -21 45 -21 57 -24 710 -3
737 -4 720 63 798 78 91 215 136 415 136 201 0 337 -44 414 -135 51 -60 66
-118 66 -265 l0 -123 246 0 247 0 -6 203 c-8 297 -40 398 -162 523 -102 103
-261 175 -467 209 -90 15 -447 28 -533 19z"/>
<path d="M2840 2691 l0 -1321 245 0 245 0 0 461 0 461 198 -4 c313 -5 288 19
526 -516 l178 -402 275 0 c216 0 274 3 270 13 -3 6 -107 231 -231 499 -124
268 -226 489 -226 491 0 2 35 21 77 42 127 63 202 152 249 295 25 78 33 722
11 854 -38 220 -165 354 -394 418 -76 22 -96 22 -750 26 l-673 3 0 -1320z
m1163 873 c68 -23 132 -84 156 -150 19 -49 21 -77 21 -266 0 -250 -5 -273 -75
-345 -78 -79 -98 -83 -467 -83 l-308 0 0 430 0 430 313 0 c259 0 321 -3 360
-16z"/>
<path d="M200 1130 l0 -50 2300 0 2300 0 0 50 0 50 -2300 0 -2300 0 0 -50z"/>
</g>
</svg>
